<?xml version="1.0" encoding="UTF-8"?>
<svg
  width="200"
  height="200"
  viewBox="0 0 200 200"
  xmlns="http://www.w3.org/2000/svg"
  fill="none"
  stroke="black"
  stroke-width="2"
>
  <g transform="translate(100, 100)">
    <!-- Buat 24 garis radial -->
    <g>
      <!-- Ulangi 24 kali -->
      <!-- Tiap 360/24 = 15 deg -->
      <!-- Gunakan transform rotate -->
      <!-- Panjang garis = 100 -->
      <!-- Coretan dari tengah ke luar -->
      <!-- Bisa ubah stroke-width dan warna -->
      <line x1="0" y1="0" x2="0" y2="-100" transform="rotate(0)" />
      <line x1="0" y1="0" x2="0" y2="-100" transform="rotate(15)" />
      <line x1="0" y1="0" x2="0" y2="-100" transform="rotate(30)" />
      <line x1="0" y1="0" x2="0" y2="-100" transform="rotate(45)" />
      <line x1="0" y1="0" x2="0" y2="-100" transform="rotate(60)" />
      <line x1="0" y1="0" x2="0" y2="-100" transform="rotate(75)" />
      <line x1="0" y1="0" x2="0" y2="-100" transform="rotate(90)" />
      <line x1="0" y1="0" x2="0" y2="-100" transform="rotate(105)" />
      <line x1="0" y1="0" x2="0" y2="-100" transform="rotate(120)" />
      <line x1="0" y1="0" x2="0" y2="-100" transform="rotate(135)" />
      <line x1="0" y1="0" x2="0" y2="-100" transform="rotate(150)" />
      <line x1="0" y1="0" x2="0" y2="-100" transform="rotate(165)" />
      <line x1="0" y1="0" x2="0" y2="-100" transform="rotate(180)" />
      <line x1="0" y1="0" x2="0" y2="-100" transform="rotate(195)" />
      <line x1="0" y1="0" x2="0" y2="-100" transform="rotate(210)" />
      <line x1="0" y1="0" x2="0" y2="-100" transform="rotate(225)" />
      <line x1="0" y1="0" x2="0" y2="-100" transform="rotate(240)" />
      <line x1="0" y1="0" x2="0" y2="-100" transform="rotate(255)" />
      <line x1="0" y1="0" x2="0" y2="-100" transform="rotate(270)" />
      <line x1="0" y1="0" x2="0" y2="-100" transform="rotate(285)" />
      <line x1="0" y1="0" x2="0" y2="-100" transform="rotate(300)" />
      <line x1="0" y1="0" x2="0" y2="-100" transform="rotate(315)" />
      <line x1="0" y1="0" x2="0" y2="-100" transform="rotate(330)" />
      <line x1="0" y1="0" x2="0" y2="-100" transform="rotate(345)" />
    </g>
    <!-- Tambah lingkaran tengah kalau mau -->
    <circle cx="0" cy="0" r="5" fill="black"/>
  </g>
</svg>
